<svg xmlns:xlink="http://www.w3.org/1999/xlink" xmlns="http://www.w3.org/2000/svg" xmlns:ev="http://www.w3.org/2001/xml-events" viewBox="0 0 1282 1257" width="1282" height="1257"><defs/><g transform="translate(5.5,5.5)" id="page1"><rect fill="#ffffff" y="0" width="1272" x="0" height="1247"/><path stroke="#000000" stroke-linecap="round" stroke-width="1" transform="translate(102.047244,963.279530)" id="shape1" fill="none" d="M822.0,.0L822.0,18.2L.4,18.2L.0,64.8"/><path stroke="#000000" stroke-linecap="round" stroke-width="1" transform="matrix(0.000000,1.000000,-1.000000,0.000000,49.633858,919.866043)" id="shape2" fill="none" d="M.0,.0L105.5,.0"/><path stroke="#000000" stroke-linecap="round" stroke-width="1" transform="matrix(0.000000,-1.000000,1.000000,0.000000,950.489359,642.019693)" id="shape3" fill="none" d="M.0,.0L377.5,.0"/><path stroke="#000000" stroke-linecap="round" stroke-width="1" transform="matrix(0.000000,-1.000000,1.000000,0.000000,1139.465737,642.019693)" id="shape4" fill="none" d="M.0,.0L377.5,.0"/><path stroke="#000000" stroke-linecap="round" stroke-width="1" transform="matrix(0.000000,1.000000,-1.000000,0.000000,1111.976792,642.519685)" id="shape5" fill="none" d="M.0,.0L226.8,.0"/><path stroke="#000000" stroke-linecap="round" stroke-width="1" transform="matrix(0.000000,1.000000,-1.000000,0.000000,1127.094903,455.433071)" id="shape6" fill="none" d="M.0,.0L412.0,.0"/><path stroke="#000000" stroke-linecap="round" stroke-width="1" transform="matrix(0.000000,1.000000,-1.000000,0.000000,923.000414,642.519685)" id="shape7" fill="none" d="M.0,.0L226.8,.0"/><path stroke="#000000" stroke-linecap="round" stroke-width="1" transform="matrix(0.000000,1.000000,-1.000000,0.000000,938.118525,455.433071)" id="shape8" fill="none" d="M.0,.0L412.0,.0"/><path stroke="#000000" stroke-linecap="round" stroke-width="1" transform="matrix(0.000000,1.000000,-1.000000,0.000000,162.519685,642.519685)" id="shape9" fill="none" d="M.0,.0L226.8,.0"/><path stroke="#000000" stroke-linecap="round" stroke-width="1" transform="matrix(0.000000,1.000000,-1.000000,0.000000,177.637795,455.433071)" id="shape10" fill="none" d="M.0,.0L412.0,.0"/><path stroke="#000000" stroke-linecap="round" stroke-width="1" transform="matrix(0.000000,1.000000,-1.000000,0.000000,49.133858,642.519685)" id="shape11" fill="none" d="M.0,.0L226.8,.0"/><path stroke="#000000" stroke-linecap="round" stroke-width="1" transform="matrix(0.000000,1.000000,-1.000000,0.000000,64.251969,455.433071)" id="shape12" fill="none" d="M.0,.0L412.0,.0"/><g transform="translate(18.897638,113.385827)" id="shape13"><path stroke="#000000" stroke-linecap="round" stroke-width="1" fill="#ffffff" fill-rule="evenodd" d="M.0,151.2L75.6,151.2L75.6,.0L.0,.0L.0,151.2z"/><text xml:space="preserve" style="fill:#000000;font-family:Segoe UI,PingFang SC,Mircrosoft YaHei,Arial;font-size:16px"><tspan y="81.1" x="18.8" textLength="38.0" style="font-family:Calibri,PingFang SC,Mircrosoft YaHei,Arial">ram 0</tspan></text></g><g transform="translate(132.283465,113.385827)" id="shape14"><path stroke="#000000" stroke-linecap="round" stroke-width="1" fill="#ffffff" fill-rule="evenodd" d="M.0,151.2L75.6,151.2L75.6,.0L.0,.0L.0,151.2z"/><text xml:space="preserve" style="fill:#000000;font-family:Segoe UI,PingFang SC,Mircrosoft YaHei,Arial;font-size:16px"><tspan y="81.1" x="18.8" textLength="38.0" style="font-family:Calibri,PingFang SC,Mircrosoft YaHei,Arial">ram 1</tspan></text></g><g transform="translate(1082.772824,490.838591)" id="shape15"><path stroke="#000000" stroke-linecap="round" stroke-width="1" fill="#ffffff" fill-rule="evenodd" d="M.0,151.2L75.6,151.2L75.6,.0L.0,.0L.0,151.2z"/><text xml:space="preserve" style="fill:#000000;font-family:Segoe UI,PingFang SC,Mircrosoft YaHei,Arial;font-size:16px"><tspan y="71.6" x="24.8" textLength="30.0" style="font-family:Calibri,PingFang SC,Mircrosoft YaHei,Arial">ram </tspan><tspan y="90.6" x="18.8" textLength="38.0" style="font-family:Calibri,PingFang SC,Mircrosoft YaHei,Arial">46/47</tspan></text></g><path stroke="#000000" stroke-linecap="round" stroke-width="1" transform="translate(988.284635,566.429142)" id="shape16" fill="none" stroke-dasharray="11,5" d="M.0,.0L75.6,.0"/><path stroke="#000000" stroke-linecap="round" stroke-width="1" transform="translate(988.284635,755.405520)" id="shape17" fill="none" stroke-dasharray="11,5" d="M.0,.0L75.6,.0"/><g transform="translate(9.182698,642.019693)" id="group18"><path stroke="#000000" stroke-linecap="round" stroke-width="1" transform="translate(10.214939,226.771605)" id="shape19" fill="#ffffff" fill-rule="evenodd" d="M.0,.0L75.6,.0L56.7,37.8L18.9,37.8L.0,.0z"/><path stroke="#000000" stroke-linecap="round" stroke-width="1" transform="matrix(0.000000,1.000000,-1.000000,0.000000,29.112577,188.976362)" id="shape20" fill="none" d="M.0,.0L37.8,.0"/><path stroke="#000000" stroke-linecap="round" stroke-width="1" transform="matrix(0.000000,1.000000,-1.000000,0.000000,66.907853,0.000000)" id="shape21" fill="none" d="M.0,.0L226.8,.0"/><path stroke="#000000" stroke-linecap="round" stroke-width="1" transform="translate(0.000000,240.050993)" id="shape22" fill="#ffffff" fill-rule="evenodd" d="M.0,.0L75.6,.0L56.7,37.8L18.9,37.8L.0,.0z"/></g><g transform="translate(122.568525,642.019693)" id="group23"><path stroke="#000000" stroke-linecap="round" stroke-width="1" transform="translate(10.214939,226.771605)" id="shape24" fill="#ffffff" fill-rule="evenodd" d="M.0,.0L75.6,.0L56.7,37.8L18.9,37.8L.0,.0z"/><path stroke="#000000" stroke-linecap="round" stroke-width="1" transform="matrix(0.000000,1.000000,-1.000000,0.000000,29.112577,188.976362)" id="shape25" fill="none" d="M.0,.0L37.8,.0"/><path stroke="#000000" stroke-linecap="round" stroke-width="1" transform="matrix(0.000000,1.000000,-1.000000,0.000000,66.907853,0.000000)" id="shape26" fill="none" d="M.0,.0L226.8,.0"/><path stroke="#000000" stroke-linecap="round" stroke-width="1" transform="translate(0.000000,240.050993)" id="shape27" fill="#ffffff" fill-rule="evenodd" d="M.0,.0L75.6,.0L56.7,37.8L18.9,37.8L.0,.0z"/></g><g transform="translate(1072.557885,642.019693)" id="group28"><path stroke="#000000" stroke-linecap="round" stroke-width="1" transform="translate(10.214939,226.771605)" id="shape29" fill="#ffffff" fill-rule="evenodd" d="M.0,.0L75.6,.0L56.7,37.8L18.9,37.8L.0,.0z"/><path stroke="#000000" stroke-linecap="round" stroke-width="1" transform="matrix(0.000000,1.000000,-1.000000,0.000000,29.112577,188.976362)" id="shape30" fill="none" d="M.0,.0L37.8,.0"/><path stroke="#000000" stroke-linecap="round" stroke-width="1" transform="matrix(0.000000,1.000000,-1.000000,0.000000,66.907853,0.000000)" id="shape31" fill="none" d="M.0,.0L226.8,.0"/><path stroke="#000000" stroke-linecap="round" stroke-width="1" transform="translate(0.000000,240.050993)" id="shape32" fill="#ffffff" fill-rule="evenodd" d="M.0,.0L75.6,.0L56.7,37.8L18.9,37.8L.0,.0z"/></g><g transform="translate(19.397638,679.814969)" id="shape33"><path stroke="#000000" stroke-linecap="round" stroke-width="1" fill="#ffffff" fill-rule="evenodd" d="M.0,151.2L75.6,151.2L75.6,.0L.0,.0L.0,151.2z"/><text xml:space="preserve" style="fill:#000000;font-family:Segoe UI,PingFang SC,Mircrosoft YaHei,Arial;font-size:16px"><tspan y="81.1" x="14.8" textLength="46.0" style="font-family:Calibri,PingFang SC,Mircrosoft YaHei,Arial">ram 48</tspan></text></g><g transform="translate(132.783465,679.814969)" id="shape34"><path stroke="#000000" stroke-linecap="round" stroke-width="1" fill="#ffffff" fill-rule="evenodd" d="M.0,151.2L75.6,151.2L75.6,.0L.0,.0L.0,151.2z"/><text xml:space="preserve" style="fill:#000000;font-family:Segoe UI,PingFang SC,Mircrosoft YaHei,Arial;font-size:16px"><tspan y="81.1" x="14.8" textLength="46.0" style="font-family:Calibri,PingFang SC,Mircrosoft YaHei,Arial">ram 49</tspan></text></g><g transform="translate(1082.772824,679.814969)" id="shape35"><path stroke="#000000" stroke-linecap="round" stroke-width="1" fill="#ffffff" fill-rule="evenodd" d="M.0,151.2L75.6,151.2L75.6,.0L.0,.0L.0,151.2z"/><text xml:space="preserve" style="fill:#000000;font-family:Segoe UI,PingFang SC,Mircrosoft YaHei,Arial;font-size:16px"><tspan y="71.6" x="24.8" textLength="30.0" style="font-family:Calibri,PingFang SC,Mircrosoft YaHei,Arial">ram </tspan><tspan y="90.6" x="18.8" textLength="38.0" style="font-family:Calibri,PingFang SC,Mircrosoft YaHei,Arial">62/63</tspan></text></g><g transform="translate(1177.261013,868.791347)" id="shape36"><text xml:space="preserve" style="fill:#000000;font-family:Segoe UI,PingFang SC,Mircrosoft YaHei,Arial;font-size:16px"><tspan y="14.8" x="17.2" textLength="64.0" style="font-family:Calibri,PingFang SC,Mircrosoft YaHei,Arial">LDU read </tspan><tspan y="33.8" x="20.2" textLength="58.0" style="font-family:Calibri,PingFang SC,Mircrosoft YaHei,Arial">port, 2 x </tspan><tspan y="52.8" x="30.7" textLength="33.0" style="font-family:Calibri,PingFang SC,Mircrosoft YaHei,Arial">256B</tspan></text></g><path stroke="#000000" stroke-linecap="round" stroke-width="0.99938833713531494" transform="translate(19.397638,85.488189)" id="shape37" fill="none" d="M.0,18.0L.0,17.0L.0,16.3L.2,15.3L.5,14.6L.6,13.8L1.0,13.0L1.4,12.3L1.7,11.7L2.2,11.1L2.7,10.5L3.2,10.1L3.8,9.8L4.4,9.4L4.9,9.2L5.5,9.0L6.2,9.0L31.4,9.0L32.0,9.0L32.6,8.8L33.3,8.6L33.9,8.2L34.4,7.9L35.0,7.5L35.5,6.9L35.8,6.3L36.3,5.7L36.6,5.0L36.9,4.2L37.2,3.4L37.4,2.7L37.6,1.7L37.7,.8L37.7,.0L37.7,.8L37.9,1.7L38.0,2.7L38.2,3.4L38.5,4.2L38.8,5.0L39.1,5.7L39.6,6.3L40.1,6.9L40.6,7.5L41.0,7.9L41.5,8.2L42.2,8.6L42.8,8.8L43.4,9.0L44.1,9.0L69.3,9.0L69.9,9.0L70.5,9.2L71.2,9.4L71.6,9.8L72.3,10.1L72.7,10.5L73.2,11.1L73.7,11.7L74.0,12.3L74.5,13.0L74.8,13.8L75.0,14.6L75.3,15.3L75.4,16.3L75.4,17.0L75.6,18.0"/><g transform="translate(19.397638,44.757563)" id="shape38"><text xml:space="preserve" style="fill:#000000;font-family:Segoe UI,PingFang SC,Mircrosoft YaHei,Arial;font-size:16px"><tspan y="14.9" x="25.3" textLength="25.0" style="font-family:Calibri,PingFang SC,Mircrosoft YaHei,Arial">16B</tspan><tspan y="33.9" x="11.3" textLength="53.0" style="font-family:Calibri,PingFang SC,Mircrosoft YaHei,Arial">subbank</tspan></text></g><g transform="translate(19.397638,1096.062992)" id="shape39"><path stroke="#000000" stroke-linecap="round" stroke-width="1" fill="#ffffff" fill-rule="evenodd" d="M.0,132.3L755.9,132.3L755.9,.0L.0,.0L.0,132.3z"/><text xml:space="preserve" style="fill:#000000;font-family:Segoe UI,PingFang SC,Mircrosoft YaHei,Arial;font-size:16px"><tspan y="62.1" x="359.5" textLength="37.0" style="font-family:Calibri,PingFang SC,Mircrosoft YaHei,Arial">xbar0</tspan><tspan y="81.1" x="338.5" textLength="79.0" style="font-family:Calibri,PingFang SC,Mircrosoft YaHei,Arial">64 x 64 x 2B</tspan></text></g><path stroke="#000000" stroke-linecap="round" stroke-width="1" transform="translate(37.795276,1020.472441)" id="shape40" fill="#ffffff" fill-rule="evenodd" d="M.0,.0L75.6,.0L56.7,37.8L18.9,37.8L.0,.0z"/><path stroke="#000000" stroke-linecap="round" stroke-width="1" transform="matrix(0.000000,1.000000,-1.000000,0.000000,163.019685,919.866043)" id="shape41" fill="none" d="M.0,.0L43.4,.0"/><path stroke="#000000" stroke-linecap="round" stroke-width="1" transform="matrix(0.000000,1.000000,-1.000000,0.000000,1113.009044,919.866043)" id="shape42" fill="none" d="M.0,.0L43.4,.0"/><path stroke="#000000" stroke-linecap="round" stroke-width="1" transform="matrix(0.000000,1.000000,-1.000000,0.000000,813.098425,0.000000)" id="shape43" fill="none" stroke-dasharray="11,5" d="M.0,.0L1246.0,.0"/><g transform="translate(893.796446,490.838591)" id="shape44"><path stroke="#000000" stroke-linecap="round" stroke-width="1" fill="#ffffff" fill-rule="evenodd" d="M.0,151.2L75.6,151.2L75.6,.0L.0,.0L.0,151.2z"/><text xml:space="preserve" style="fill:#000000;font-family:Segoe UI,PingFang SC,Mircrosoft YaHei,Arial;font-size:16px"><tspan y="71.6" x="24.8" textLength="30.0" style="font-family:Calibri,PingFang SC,Mircrosoft YaHei,Arial">ram </tspan><tspan y="90.6" x="18.8" textLength="38.0" style="font-family:Calibri,PingFang SC,Mircrosoft YaHei,Arial">40/41</tspan></text></g><g transform="translate(883.581507,642.019693)" id="group45"><path stroke="#000000" stroke-linecap="round" stroke-width="1" transform="translate(10.214939,226.771605)" id="shape46" fill="#ffffff" fill-rule="evenodd" d="M.0,.0L75.6,.0L56.7,37.8L18.9,37.8L.0,.0z"/><path stroke="#000000" stroke-linecap="round" stroke-width="1" transform="matrix(0.000000,1.000000,-1.000000,0.000000,29.112577,188.976362)" id="shape47" fill="none" d="M.0,.0L37.8,.0"/><path stroke="#000000" stroke-linecap="round" stroke-width="1" transform="matrix(0.000000,1.000000,-1.000000,0.000000,66.907853,0.000000)" id="shape48" fill="none" d="M.0,.0L226.8,.0"/><path stroke="#000000" stroke-linecap="round" stroke-width="1" transform="translate(0.000000,240.050993)" id="shape49" fill="#ffffff" fill-rule="evenodd" d="M.0,.0L75.6,.0L56.7,37.8L18.9,37.8L.0,.0z"/></g><g transform="translate(893.796446,679.814969)" id="shape50"><path stroke="#000000" stroke-linecap="round" stroke-width="1" fill="#ffffff" fill-rule="evenodd" d="M.0,151.2L75.6,151.2L75.6,.0L.0,.0L.0,151.2z"/><text xml:space="preserve" style="fill:#000000;font-family:Segoe UI,PingFang SC,Mircrosoft YaHei,Arial;font-size:16px"><tspan y="71.6" x="24.8" textLength="30.0" style="font-family:Calibri,PingFang SC,Mircrosoft YaHei,Arial">ram </tspan><tspan y="90.6" x="18.8" textLength="38.0" style="font-family:Calibri,PingFang SC,Mircrosoft YaHei,Arial">56/57</tspan></text></g><path stroke="#000000" stroke-linecap="round" stroke-width="1" transform="matrix(0.000000,1.000000,-1.000000,0.000000,924.032667,919.866043)" id="shape51" fill="none" d="M.0,.0L43.4,.0"/><g transform="translate(0.500000,0.000000)" id="shape52"><path stroke="#000000" stroke-linecap="round" stroke-width="1" fill="none" d="M.0,849.9L226.3,849.9L226.3,.0L.0,.0L.0,849.9z"/><text xml:space="preserve" style="fill:#000000;font-family:Segoe UI,PingFang SC,Mircrosoft YaHei,Arial;font-size:40px"><tspan y="42.0" x="44.1" textLength="138.0" style="font-family:Calibri,PingFang SC,Mircrosoft YaHei,Arial">BKGRP 0</tspan></text></g><path stroke="#000000" stroke-linecap="round" stroke-width="1" transform="translate(472.940945,642.019693)" id="shape53" fill="none" stroke-dasharray="11,5" d="M.0,.0L132.3,.0"/><g transform="translate(624.122047,0.000000)" id="shape54"><path stroke="#000000" stroke-linecap="round" stroke-width="1" fill="none" d="M.0,849.9L151.2,849.9L151.2,.0L.0,.0L.0,849.9z"/><text xml:space="preserve" style="fill:#000000;font-family:Segoe UI,PingFang SC,Mircrosoft YaHei,Arial;font-size:40px"><tspan y="42.0" x="6.6" textLength="138.0" style="font-family:Calibri,PingFang SC,Mircrosoft YaHei,Arial">BKGRP 3</tspan></text></g><g transform="translate(1049.318898,0.000000)" id="shape55"><path stroke="#000000" stroke-linecap="round" stroke-width="1" fill="none" d="M.0,849.9L151.2,849.9L151.2,.0L.0,.0L.0,849.9z"/><text xml:space="preserve" style="fill:#000000;font-family:Segoe UI,PingFang SC,Mircrosoft YaHei,Arial;font-size:40px"><tspan y="42.0" x="6.6" textLength="138.0" style="font-family:Calibri,PingFang SC,Mircrosoft YaHei,Arial">BKGRP 7</tspan></text></g><g transform="translate(858.992688,0.000000)" id="shape56"><path stroke="#000000" stroke-linecap="round" stroke-width="1" fill="none" d="M.0,849.9L151.2,849.9L151.2,.0L.0,.0L.0,849.9z"/><text xml:space="preserve" style="fill:#000000;font-family:Segoe UI,PingFang SC,Mircrosoft YaHei,Arial;font-size:40px"><tspan y="42.0" x="6.6" textLength="138.0" style="font-family:Calibri,PingFang SC,Mircrosoft YaHei,Arial">BKGRP 4</tspan></text></g><g transform="translate(18.897638,491.338583)" id="shape57"><path stroke="#000000" stroke-linecap="round" stroke-width="1" fill="#ffffff" fill-rule="evenodd" d="M.0,151.2L75.6,151.2L75.6,.0L.0,.0L.0,151.2z"/><text xml:space="preserve" style="fill:#000000;font-family:Segoe UI,PingFang SC,Mircrosoft YaHei,Arial;font-size:16px"><tspan y="81.1" x="14.8" textLength="46.0" style="font-family:Calibri,PingFang SC,Mircrosoft YaHei,Arial">ram 32</tspan></text></g><g transform="translate(132.283465,491.338583)" id="shape58"><path stroke="#000000" stroke-linecap="round" stroke-width="1" fill="#ffffff" fill-rule="evenodd" d="M.0,151.2L75.6,151.2L75.6,.0L.0,.0L.0,151.2z"/><text xml:space="preserve" style="fill:#000000;font-family:Segoe UI,PingFang SC,Mircrosoft YaHei,Arial;font-size:16px"><tspan y="81.1" x="14.8" textLength="46.0" style="font-family:Calibri,PingFang SC,Mircrosoft YaHei,Arial">ram 33</tspan></text></g><g transform="translate(18.897638,302.362205)" id="shape59"><path stroke="#000000" stroke-linecap="round" stroke-width="1" fill="#ffffff" fill-rule="evenodd" d="M.0,151.2L75.6,151.2L75.6,.0L.0,.0L.0,151.2z"/><text xml:space="preserve" style="fill:#000000;font-family:Segoe UI,PingFang SC,Mircrosoft YaHei,Arial;font-size:16px"><tspan y="81.1" x="14.8" textLength="46.0" style="font-family:Calibri,PingFang SC,Mircrosoft YaHei,Arial">ram 16</tspan></text></g><g transform="translate(132.283465,302.362205)" id="shape60"><path stroke="#000000" stroke-linecap="round" stroke-width="1" fill="#ffffff" fill-rule="evenodd" d="M.0,151.2L75.6,151.2L75.6,.0L.0,.0L.0,151.2z"/><text xml:space="preserve" style="fill:#000000;font-family:Segoe UI,PingFang SC,Mircrosoft YaHei,Arial;font-size:16px"><tspan y="81.1" x="14.8" textLength="46.0" style="font-family:Calibri,PingFang SC,Mircrosoft YaHei,Arial">ram 17</tspan></text></g><path stroke="#000000" stroke-linecap="round" stroke-width="1" transform="matrix(0.000000,-1.000000,1.000000,0.000000,188.976378,491.338586)" id="shape61" fill="none" d="M.0,.0L37.8,.0"/><path stroke="#000000" stroke-linecap="round" stroke-width="1" transform="matrix(0.000000,-1.000000,1.000000,0.000000,188.976378,302.362208)" id="shape62" fill="none" d="M.0,.0L37.8,.0"/><path stroke="#000000" stroke-linecap="round" stroke-width="1" transform="matrix(0.000000,-1.000000,1.000000,0.000000,75.590551,491.338586)" id="shape63" fill="none" d="M.0,.0L37.8,.0"/><path stroke="#000000" stroke-linecap="round" stroke-width="1" transform="matrix(0.000000,-1.000000,1.000000,0.000000,75.590551,302.362208)" id="shape64" fill="none" d="M.0,.0L37.8,.0"/><g transform="translate(1082.772824,302.362205)" id="shape65"><path stroke="#000000" stroke-linecap="round" stroke-width="1" fill="#ffffff" fill-rule="evenodd" d="M.0,151.2L75.6,151.2L75.6,.0L.0,.0L.0,151.2z"/><text xml:space="preserve" style="fill:#000000;font-family:Segoe UI,PingFang SC,Mircrosoft YaHei,Arial;font-size:16px"><tspan y="71.6" x="24.8" textLength="30.0" style="font-family:Calibri,PingFang SC,Mircrosoft YaHei,Arial">ram </tspan><tspan y="90.6" x="18.8" textLength="38.0" style="font-family:Calibri,PingFang SC,Mircrosoft YaHei,Arial">30/31</tspan></text></g><g transform="translate(893.796446,302.362205)" id="shape66"><path stroke="#000000" stroke-linecap="round" stroke-width="1" fill="#ffffff" fill-rule="evenodd" d="M.0,151.2L75.6,151.2L75.6,.0L.0,.0L.0,151.2z"/><text xml:space="preserve" style="fill:#000000;font-family:Segoe UI,PingFang SC,Mircrosoft YaHei,Arial;font-size:16px"><tspan y="71.6" x="24.8" textLength="30.0" style="font-family:Calibri,PingFang SC,Mircrosoft YaHei,Arial">ram </tspan><tspan y="90.6" x="18.8" textLength="38.0" style="font-family:Calibri,PingFang SC,Mircrosoft YaHei,Arial">24/25</tspan></text></g><g transform="translate(1082.772824,113.385827)" id="shape67"><path stroke="#000000" stroke-linecap="round" stroke-width="1" fill="#ffffff" fill-rule="evenodd" d="M.0,151.2L75.6,151.2L75.6,.0L.0,.0L.0,151.2z"/><text xml:space="preserve" style="fill:#000000;font-family:Segoe UI,PingFang SC,Mircrosoft YaHei,Arial;font-size:16px"><tspan y="71.6" x="24.8" textLength="30.0" style="font-family:Calibri,PingFang SC,Mircrosoft YaHei,Arial">ram </tspan><tspan y="90.6" x="18.8" textLength="38.0" style="font-family:Calibri,PingFang SC,Mircrosoft YaHei,Arial">14/15</tspan></text></g><g transform="translate(893.796446,113.385827)" id="shape68"><path stroke="#000000" stroke-linecap="round" stroke-width="1" fill="#ffffff" fill-rule="evenodd" d="M.0,151.2L75.6,151.2L75.6,.0L.0,.0L.0,151.2z"/><text xml:space="preserve" style="fill:#000000;font-family:Segoe UI,PingFang SC,Mircrosoft YaHei,Arial;font-size:16px"><tspan y="81.1" x="11.8" textLength="52.0" style="font-family:Calibri,PingFang SC,Mircrosoft YaHei,Arial">ram 8/9</tspan></text></g><path stroke="#000000" stroke-linecap="round" stroke-width="1" transform="matrix(0.000000,1.000000,-1.000000,0.000000,75.590551,1058.267717)" id="shape69" fill="none" d="M.0,.0L37.8,.0"/></g></svg>