<svg xmlns:xlink="http://www.w3.org/1999/xlink" xmlns="http://www.w3.org/2000/svg" xmlns:ev="http://www.w3.org/2001/xml-events" viewBox="0 0 643 898" width="643" height="898"><defs/><g transform="translate(5.5,5.5)" id="page1"><rect fill="#ffffff" y="0" width="633" x="0" height="888"/><path stroke="#000000" stroke-linecap="round" stroke-width="1" transform="matrix(0.000000,1.000000,-1.000000,0.000000,525.354331,387.401575)" id="shape1" fill="none" d="M.0,.0L14.5,.0"/><path stroke="#000000" stroke-linecap="round" stroke-width="1" transform="matrix(0.000000,1.000000,-1.000000,0.000000,309.921260,387.401575)" id="shape2" fill="none" d="M.0,.0L14.5,.0"/><path stroke="#000000" stroke-linecap="round" stroke-width="1" transform="matrix(0.000000,1.000000,-1.000000,0.000000,355.275591,387.401575)" id="shape3" fill="none" d="M.0,.0L14.5,.0"/><path stroke="#000000" stroke-linecap="round" stroke-width="1" transform="matrix(0.000000,1.000000,-1.000000,0.000000,264.566929,387.401575)" id="shape4" fill="none" d="M.0,.0L14.5,.0"/><g transform="translate(255.118110,401.925611)" id="shape5"><path stroke="#ffc000" stroke-linecap="round" stroke-width="1" fill="#ffffff" fill-rule="evenodd" d="M.0,26.5L289.1,26.5L289.1,.0L.0,.0L.0,26.5z"/><text xml:space="preserve" style="fill:#000000;font-family:Arial,PingFang SC,Mircrosoft YaHei,Arial;font-size:8px"><tspan y="16.7" x="137.6" textLength="14.0" style="font-family:Segoe UI,PingFang SC,Mircrosoft YaHei,Arial">src1</tspan></text></g><g transform="translate(255.118110,427.842520)" id="shape6"><path stroke="#ffc000" stroke-linecap="round" stroke-width="1" fill="#ffffff" fill-rule="evenodd" d="M.0,54.0L289.1,54.0L289.1,.0L.0,.0L.0,54.0z"/><text xml:space="preserve" style="fill:#000000;font-family:Segoe UI,PingFang SC,Mircrosoft YaHei,Arial;font-size:16px"><tspan y="32.5" x="46.1" textLength="197.0" style="font-family:Calibri,PingFang SC,Mircrosoft YaHei,Arial">8x8 32B per ele rotator by bfly</tspan></text></g><g transform="translate(544.251968,450.559470)" id="shape7"><path stroke="#ffc000" stroke-linecap="round" stroke-width="1" fill="none" d="M.0,.0L48.9,.0"/><path stroke-linecap="round" stroke="#ffc000" stroke-width="1" fill="#ffc000" d="M56.7,.0L48.9,-2.0L48.9,2.0L56.7,.0"/></g><g transform="translate(562.204724,456.228761)" id="shape8"><text xml:space="preserve" style="fill:#000000;font-family:Segoe UI,PingFang SC,Mircrosoft YaHei,Arial;font-size:16px"><tspan y="12.1" x="22.0" textLength="41.0" style="font-family:Calibri,PingFang SC,Mircrosoft YaHei,Arial">to LSU</tspan></text></g><g transform="translate(251.338583,368.503937)" id="shape9"><path stroke="#ffc000" stroke-linecap="round" stroke-width="1" fill="#ffffff" fill-rule="evenodd" d="M.0,18.9L26.5,18.9L26.5,.0L.0,.0L.0,18.9z"/><text xml:space="preserve" style="fill:#000000;font-family:Segoe UI,PingFang SC,Mircrosoft YaHei,Arial;font-size:8px"><tspan y="12.4" x="6.2" textLength="14.0" style="font-family:Calibri,PingFang SC,Mircrosoft YaHei,Arial">4m1</tspan></text></g><g transform="translate(342.047244,368.503937)" id="shape10"><path stroke="#ffc000" stroke-linecap="round" stroke-width="1" fill="#ffffff" fill-rule="evenodd" d="M.0,18.9L26.5,18.9L26.5,.0L.0,.0L.0,18.9z"/><text xml:space="preserve" style="fill:#000000;font-family:Segoe UI,PingFang SC,Mircrosoft YaHei,Arial;font-size:8px"><tspan y="12.4" x="6.2" textLength="14.0" style="font-family:Calibri,PingFang SC,Mircrosoft YaHei,Arial">4m1</tspan></text></g><g transform="translate(512.125984,368.503937)" id="shape11"><path stroke="#ffc000" stroke-linecap="round" stroke-width="1" fill="#ffffff" fill-rule="evenodd" d="M.0,18.9L26.5,18.9L26.5,.0L.0,.0L.0,18.9z"/><text xml:space="preserve" style="fill:#000000;font-family:Segoe UI,PingFang SC,Mircrosoft YaHei,Arial;font-size:8px"><tspan y="12.4" x="6.2" textLength="14.0" style="font-family:Calibri,PingFang SC,Mircrosoft YaHei,Arial">4m1</tspan></text></g><g transform="translate(296.692913,368.503937)" id="shape12"><path stroke="#ffc000" stroke-linecap="round" stroke-width="1" fill="#ffffff" fill-rule="evenodd" d="M.0,18.9L26.5,18.9L26.5,.0L.0,.0L.0,18.9z"/><text xml:space="preserve" style="fill:#000000;font-family:Segoe UI,PingFang SC,Mircrosoft YaHei,Arial;font-size:8px"><tspan y="12.4" x="6.2" textLength="14.0" style="font-family:Calibri,PingFang SC,Mircrosoft YaHei,Arial">4m1</tspan></text></g><g transform="translate(503.514623,9.448819)" id="shape13"><path stroke="#000000" stroke-linecap="round" stroke-width="1" fill="#ffffff" fill-rule="evenodd" d="M.0,351.0L26.5,351.0L26.5,.0L.0,.0L.0,351.0z"/><text xml:space="preserve" style="fill:#000000;font-family:Segoe UI,PingFang SC,Mircrosoft YaHei,Arial;font-size:13px"><tspan y="16.0" x="6.7" textLength="13.0" style="font-family:Calibri,PingFang SC,Mircrosoft YaHei,Arial">bk</tspan><tspan y="31.0" x="4.2" textLength="18.0" style="font-family:Calibri,PingFang SC,Mircrosoft YaHei,Arial">grp</tspan><tspan y="46.0" x="9.7" textLength="7.0" style="font-family:Calibri,PingFang SC,Mircrosoft YaHei,Arial">7</tspan></text></g><g transform="translate(333.435883,9.448819)" id="shape14"><path stroke="#000000" stroke-linecap="round" stroke-width="1" fill="#ffffff" fill-rule="evenodd" d="M.0,351.0L26.5,351.0L26.5,.0L.0,.0L.0,351.0z"/><text xml:space="preserve" style="fill:#000000;font-family:Arial,PingFang SC,Mircrosoft YaHei,Arial;font-size:13px"><tspan y="18.0" x="6.2" textLength="14.0" style="font-family:Segoe UI,PingFang SC,Mircrosoft YaHei,Arial">bk</tspan><tspan y="35.0" x="6.7" textLength="13.0" style="font-family:Segoe UI,PingFang SC,Mircrosoft YaHei,Arial">gr</tspan><tspan y="52.0" x="5.7" textLength="15.0" style="font-family:Segoe UI,PingFang SC,Mircrosoft YaHei,Arial">p1</tspan></text></g><g transform="translate(242.727222,9.448819)" id="shape15"><path stroke="#000000" stroke-linecap="round" stroke-width="1" fill="#ffffff" fill-rule="evenodd" d="M.0,351.0L26.5,351.0L26.5,.0L.0,.0L.0,351.0z"/><text xml:space="preserve" style="fill:#000000;font-family:Arial,PingFang SC,Mircrosoft YaHei,Arial;font-size:13px"><tspan y="18.0" x="6.2" textLength="14.0" style="font-family:Segoe UI,PingFang SC,Mircrosoft YaHei,Arial">bk</tspan><tspan y="35.0" x="6.7" textLength="13.0" style="font-family:Segoe UI,PingFang SC,Mircrosoft YaHei,Arial">gr</tspan><tspan y="52.0" x="5.7" textLength="15.0" style="font-family:Segoe UI,PingFang SC,Mircrosoft YaHei,Arial">p0</tspan></text></g><g transform="translate(246.506749,71.114795)" id="shape16"><path stroke="#000000" stroke-linecap="round" stroke-width="1" fill="#ffffff" fill-rule="evenodd" d="M.0,56.7L18.9,56.7L18.9,.0L.0,.0L.0,56.7z"/><text xml:space="preserve" style="fill:#000000;font-family:Segoe UI,PingFang SC,Mircrosoft YaHei,Arial;font-size:16px"><tspan y="24.3" x="4.9" textLength="9.0" style="font-family:Calibri,PingFang SC,Mircrosoft YaHei,Arial">B</tspan><tspan y="43.3" x="5.4" textLength="8.0" style="font-family:Calibri,PingFang SC,Mircrosoft YaHei,Arial">0</tspan></text></g><g transform="translate(337.215411,71.114795)" id="shape17"><path stroke="#000000" stroke-linecap="round" stroke-width="1" fill="#ffffff" fill-rule="evenodd" d="M.0,56.7L18.9,56.7L18.9,.0L.0,.0L.0,56.7z"/><text xml:space="preserve" style="fill:#000000;font-family:Segoe UI,PingFang SC,Mircrosoft YaHei,Arial;font-size:16px"><tspan y="24.3" x="4.9" textLength="9.0" style="font-family:Calibri,PingFang SC,Mircrosoft YaHei,Arial">B</tspan><tspan y="43.3" x="5.4" textLength="8.0" style="font-family:Calibri,PingFang SC,Mircrosoft YaHei,Arial">1</tspan></text></g><g transform="translate(507.294151,71.114795)" id="shape18"><path stroke="#000000" stroke-linecap="round" stroke-width="1" fill="#ffffff" fill-rule="evenodd" d="M.0,56.7L18.9,56.7L18.9,.0L.0,.0L.0,56.7z"/><text xml:space="preserve" style="fill:#000000;font-family:Segoe UI,PingFang SC,Mircrosoft YaHei,Arial;font-size:16px"><tspan y="24.3" x="4.9" textLength="9.0" style="font-family:Calibri,PingFang SC,Mircrosoft YaHei,Arial">B</tspan><tspan y="43.3" x="5.4" textLength="8.0" style="font-family:Calibri,PingFang SC,Mircrosoft YaHei,Arial">7</tspan></text></g><path stroke="#000000" stroke-linecap="round" stroke-width="1" transform="translate(363.672104,97.571488)" id="shape19" fill="none" stroke-dasharray="11,5" d="M.0,.0L132.3,.0"/><g transform="translate(246.506749,146.705346)" id="shape20"><path stroke="#000000" stroke-linecap="round" stroke-width="1" fill="#ffffff" fill-rule="evenodd" d="M.0,56.7L18.9,56.7L18.9,.0L.0,.0L.0,56.7z"/><text xml:space="preserve" style="fill:#000000;font-family:Segoe UI,PingFang SC,Mircrosoft YaHei,Arial;font-size:16px"><tspan y="24.3" x="4.9" textLength="9.0" style="font-family:Calibri,PingFang SC,Mircrosoft YaHei,Arial">B</tspan><tspan y="43.3" x="5.4" textLength="8.0" style="font-family:Calibri,PingFang SC,Mircrosoft YaHei,Arial">8</tspan></text></g><g transform="translate(337.215411,146.705346)" id="shape21"><path stroke="#000000" stroke-linecap="round" stroke-width="1" fill="#ffffff" fill-rule="evenodd" d="M.0,56.7L18.9,56.7L18.9,.0L.0,.0L.0,56.7z"/><text xml:space="preserve" style="fill:#000000;font-family:Segoe UI,PingFang SC,Mircrosoft YaHei,Arial;font-size:16px"><tspan y="24.3" x="4.9" textLength="9.0" style="font-family:Calibri,PingFang SC,Mircrosoft YaHei,Arial">B</tspan><tspan y="43.3" x="5.4" textLength="8.0" style="font-family:Calibri,PingFang SC,Mircrosoft YaHei,Arial">9</tspan></text></g><g transform="translate(507.294151,146.705346)" id="shape22"><path stroke="#000000" stroke-linecap="round" stroke-width="1" fill="#ffffff" fill-rule="evenodd" d="M.0,56.7L18.9,56.7L18.9,.0L.0,.0L.0,56.7z"/><text xml:space="preserve" style="fill:#000000;font-family:Segoe UI,PingFang SC,Mircrosoft YaHei,Arial;font-size:16px"><tspan y="14.8" x="4.9" textLength="9.0" style="font-family:Calibri,PingFang SC,Mircrosoft YaHei,Arial">B</tspan><tspan y="33.8" x="5.4" textLength="8.0" style="font-family:Calibri,PingFang SC,Mircrosoft YaHei,Arial">1</tspan><tspan y="52.8" x="5.4" textLength="8.0" style="font-family:Calibri,PingFang SC,Mircrosoft YaHei,Arial">5</tspan></text></g><path stroke="#000000" stroke-linecap="round" stroke-width="1" transform="translate(363.672104,173.162039)" id="shape23" fill="none" stroke-dasharray="11,5" d="M.0,.0L132.3,.0"/><g transform="translate(242.727222,375.562992)" id="shape24"><path stroke="#ffc000" stroke-linecap="round" stroke-width="1" fill="#ffffff" fill-rule="evenodd" d="M.0,18.9L26.5,18.9L26.5,.0L.0,.0L.0,18.9z"/><text xml:space="preserve" style="fill:#000000;font-family:Segoe UI,PingFang SC,Mircrosoft YaHei,Arial;font-size:8px"><tspan y="12.4" x="6.2" textLength="14.0" style="font-family:Calibri,PingFang SC,Mircrosoft YaHei,Arial">4m1</tspan></text></g><g transform="translate(333.435883,375.562992)" id="shape25"><path stroke="#ffc000" stroke-linecap="round" stroke-width="1" fill="#ffffff" fill-rule="evenodd" d="M.0,18.9L26.5,18.9L26.5,.0L.0,.0L.0,18.9z"/><text xml:space="preserve" style="fill:#000000;font-family:Segoe UI,PingFang SC,Mircrosoft YaHei,Arial;font-size:8px"><tspan y="12.4" x="6.2" textLength="14.0" style="font-family:Calibri,PingFang SC,Mircrosoft YaHei,Arial">4m1</tspan></text></g><g transform="translate(503.514623,375.562992)" id="shape26"><path stroke="#ffc000" stroke-linecap="round" stroke-width="1" fill="#ffffff" fill-rule="evenodd" d="M.0,18.9L26.5,18.9L26.5,.0L.0,.0L.0,18.9z"/><text xml:space="preserve" style="fill:#000000;font-family:Segoe UI,PingFang SC,Mircrosoft YaHei,Arial;font-size:8px"><tspan y="12.4" x="6.2" textLength="14.0" style="font-family:Calibri,PingFang SC,Mircrosoft YaHei,Arial">4m1</tspan></text></g><g transform="translate(240.837458,420.823249)" id="shape27"><path stroke="#ffc000" stroke-linecap="round" stroke-width="1" fill="#ffffff" fill-rule="evenodd" d="M.0,26.5L289.1,26.5L289.1,.0L.0,.0L.0,26.5z"/><text xml:space="preserve" style="fill:#000000;font-family:Arial,PingFang SC,Mircrosoft YaHei,Arial;font-size:8px"><tspan y="16.7" x="137.6" textLength="14.0" style="font-family:Segoe UI,PingFang SC,Mircrosoft YaHei,Arial">src0</tspan></text></g><g transform="translate(288.081552,9.448819)" id="shape28"><path stroke="#000000" stroke-linecap="round" stroke-width="1" fill="#ffffff" fill-rule="evenodd" d="M.0,351.0L26.5,351.0L26.5,.0L.0,.0L.0,351.0z"/><text xml:space="preserve" style="fill:#000000;font-family:Arial,PingFang SC,Mircrosoft YaHei,Arial;font-size:13px"><tspan y="18.0" x="6.2" textLength="14.0" style="font-family:Segoe UI,PingFang SC,Mircrosoft YaHei,Arial">bk</tspan><tspan y="35.0" x="6.7" textLength="13.0" style="font-family:Segoe UI,PingFang SC,Mircrosoft YaHei,Arial">gr</tspan><tspan y="52.0" x="5.7" textLength="15.0" style="font-family:Segoe UI,PingFang SC,Mircrosoft YaHei,Arial">p4</tspan></text></g><g transform="translate(291.861080,71.114795)" id="shape29"><path stroke="#000000" stroke-linecap="round" stroke-width="1" fill="#ffffff" fill-rule="evenodd" d="M.0,56.7L18.9,56.7L18.9,.0L.0,.0L.0,56.7z"/><text xml:space="preserve" style="fill:#000000;font-family:Segoe UI,PingFang SC,Mircrosoft YaHei,Arial;font-size:16px"><tspan y="24.3" x="4.9" textLength="9.0" style="font-family:Calibri,PingFang SC,Mircrosoft YaHei,Arial">B</tspan><tspan y="43.3" x="5.4" textLength="8.0" style="font-family:Calibri,PingFang SC,Mircrosoft YaHei,Arial">4</tspan></text></g><g transform="translate(291.861080,146.705346)" id="shape30"><path stroke="#000000" stroke-linecap="round" stroke-width="1" fill="#ffffff" fill-rule="evenodd" d="M.0,56.7L18.9,56.7L18.9,.0L.0,.0L.0,56.7z"/><text xml:space="preserve" style="fill:#000000;font-family:Segoe UI,PingFang SC,Mircrosoft YaHei,Arial;font-size:16px"><tspan y="14.8" x="4.9" textLength="9.0" style="font-family:Calibri,PingFang SC,Mircrosoft YaHei,Arial">B</tspan><tspan y="33.8" x="5.4" textLength="8.0" style="font-family:Calibri,PingFang SC,Mircrosoft YaHei,Arial">1</tspan><tspan y="52.8" x="5.4" textLength="8.0" style="font-family:Calibri,PingFang SC,Mircrosoft YaHei,Arial">2</tspan></text></g><g transform="translate(288.081552,375.562992)" id="shape31"><path stroke="#ffc000" stroke-linecap="round" stroke-width="1" fill="#ffffff" fill-rule="evenodd" d="M.0,18.9L26.5,18.9L26.5,.0L.0,.0L.0,18.9z"/><text xml:space="preserve" style="fill:#000000;font-family:Segoe UI,PingFang SC,Mircrosoft YaHei,Arial;font-size:8px"><tspan y="12.4" x="6.2" textLength="14.0" style="font-family:Calibri,PingFang SC,Mircrosoft YaHei,Arial">4m1</tspan></text></g><g transform="translate(242.727222,510.236220)" id="shape32"><path stroke="#ff0000" stroke-linecap="round" stroke-width="1" fill="#ffffff" fill-rule="evenodd" d="M.0,18.9L26.5,18.9L26.5,.0L.0,.0L.0,18.9z"/><text xml:space="preserve" style="fill:#000000;font-family:Arial,PingFang SC,Mircrosoft YaHei,Arial;font-size:8px"><tspan y="12.9" x="5.7" textLength="15.0" style="font-family:Segoe UI,PingFang SC,Mircrosoft YaHei,Arial">4m1</tspan></text></g><g transform="translate(242.727222,557.480315)" id="shape33"><path stroke="#ff0000" stroke-linecap="round" stroke-width="1" fill="#ffffff" fill-rule="evenodd" d="M.0,26.5L295.9,26.5L295.9,.0L.0,.0L.0,26.5z"/><text xml:space="preserve" style="fill:#000000;font-family:Arial,PingFang SC,Mircrosoft YaHei,Arial;font-size:8px"><tspan y="16.7" x="140.9" textLength="14.0" style="font-family:Segoe UI,PingFang SC,Mircrosoft YaHei,Arial">src2</tspan></text></g><g transform="translate(240.837458,446.740157)" id="shape34"><path stroke="#ffc000" stroke-linecap="round" stroke-width="1" fill="#ffffff" fill-rule="evenodd" d="M.0,54.0L289.1,54.0L289.1,.0L.0,.0L.0,54.0z"/><text xml:space="preserve" style="fill:#000000;font-family:Segoe UI,PingFang SC,Mircrosoft YaHei,Arial;font-size:16px"><tspan y="32.5" x="46.1" textLength="197.0" style="font-family:Calibri,PingFang SC,Mircrosoft YaHei,Arial">8x8 32B per ele rotator by bfly</tspan></text></g><g transform="translate(242.727222,579.023622)" id="shape35"><path stroke="#ff0000" stroke-linecap="round" stroke-width="1" fill="#ffffff" fill-rule="evenodd" d="M.0,54.0L295.9,54.0L295.9,.0L.0,.0L.0,54.0z"/><text xml:space="preserve" style="fill:#000000;font-family:Segoe UI,PingFang SC,Mircrosoft YaHei,Arial;font-size:16px"><tspan y="32.5" x="72.4" textLength="151.0" style="font-family:Calibri,PingFang SC,Mircrosoft YaHei,Arial">8x8 32B per ele rotator</tspan></text></g><g transform="translate(529.971316,469.457107)" id="shape36"><path stroke="#ffc000" stroke-linecap="round" stroke-width="1" fill="none" d="M.0,.0L48.9,.0"/><path stroke-linecap="round" stroke="#ffc000" stroke-width="1" fill="#ffc000" d="M56.7,.0L48.9,-2.0L48.9,2.0L56.7,.0"/></g><g transform="matrix(-1.000000,0.000000,0.000000,-1.000000,242.727222,609.259843)" id="shape37"><path stroke="#ff0000" stroke-linecap="round" stroke-width="1" fill="none" d="M.0,.0L35.7,.0"/><path stroke-linecap="round" stroke="#ff0000" stroke-width="1" fill="#ff0000" d="M43.5,.0L35.7,-2.0L35.7,2.0L43.5,.0"/></g><g transform="translate(175.640607,619.842520)" id="shape38"><text xml:space="preserve" style="fill:#000000;font-family:Segoe UI,PingFang SC,Mircrosoft YaHei,Arial;font-size:16px"><tspan y="12.1" x="19.0" textLength="47.0" style="font-family:Calibri,PingFang SC,Mircrosoft YaHei,Arial">to MTE</tspan></text></g><path stroke="#ffc000" stroke-linecap="round" stroke-width="1" transform="matrix(0.000000,1.000000,-1.000000,0.000000,255.955568,360.444882)" id="shape39" fill="none" d="M.0,.0L15.1,.0"/><path stroke="#ffc000" stroke-linecap="round" stroke-width="1" transform="matrix(0.000000,1.000000,-1.000000,0.000000,299.420135,360.444882)" id="shape40" fill="none" d="M.0,.0L15.1,.0"/><g transform="translate(16.900450,186.586614)" id="shape41"><path stroke="#000000" stroke-linecap="round" stroke-width="1" fill="#ffffff" fill-rule="evenodd" d="M.0,56.7L90.7,56.7L90.7,.0L.0,.0L.0,56.7z"/><text xml:space="preserve" style="fill:#000000;font-family:Segoe UI,PingFang SC,Mircrosoft YaHei,Arial;font-size:16px"><tspan y="33.8" x="36.9" textLength="17.0" style="font-family:Calibri,PingFang SC,Mircrosoft YaHei,Arial">B0</tspan></text></g><path stroke="#000000" stroke-linecap="round" stroke-width="1" transform="matrix(0.000000,1.000000,-1.000000,0.000000,62.254781,243.279528)" id="shape42" fill="none" d="M.0,.0L26.5,.0"/><g transform="translate(58.475253,254.618110)" id="shape43"><path stroke="#000000" stroke-linecap="round" stroke-width="0.31999999284744263" fill="none" d="M7.6,-1.9L.0,9.4"/><text xml:space="preserve" style="fill:#000000;font-family:Segoe UI,PingFang SC,Mircrosoft YaHei,Arial;font-size:8px"><tspan y="9.6" x="-13.6" textLength="12.0" style="font-family:Calibri,PingFang SC,Mircrosoft YaHei,Arial">32B</tspan></text></g><g transform="translate(11.338583,299.972441)" id="shape44"><path stroke="#000000" stroke-linecap="round" stroke-width="1" fill="#ffffff" fill-rule="evenodd" d="M.0,105.8L30.2,105.8L30.2,.0L.0,.0L.0,105.8z"/><text xml:space="preserve" style="fill:#000000;font-family:Segoe UI,PingFang SC,Mircrosoft YaHei,Arial;font-size:16px"><tspan y="39.4" x="6.6" textLength="17.0" style="font-family:Calibri,PingFang SC,Mircrosoft YaHei,Arial">B0</tspan><tspan y="58.4" x="7.1" textLength="16.0" style="font-family:Calibri,PingFang SC,Mircrosoft YaHei,Arial">_b</tspan><tspan y="77.4" x="11.1" textLength="8.0" style="font-family:Calibri,PingFang SC,Mircrosoft YaHei,Arial">0</tspan></text></g><g transform="translate(79.370079,299.972441)" id="shape45"><path stroke="#000000" stroke-linecap="round" stroke-width="1" fill="#ffffff" fill-rule="evenodd" d="M.0,105.8L30.2,105.8L30.2,.0L.0,.0L.0,105.8z"/><text xml:space="preserve" style="fill:#000000;font-family:Segoe UI,PingFang SC,Mircrosoft YaHei,Arial;font-size:16px"><tspan y="39.4" x="6.6" textLength="17.0" style="font-family:Calibri,PingFang SC,Mircrosoft YaHei,Arial">B0</tspan><tspan y="58.4" x="7.1" textLength="16.0" style="font-family:Calibri,PingFang SC,Mircrosoft YaHei,Arial">_b</tspan><tspan y="77.4" x="11.1" textLength="8.0" style="font-family:Calibri,PingFang SC,Mircrosoft YaHei,Arial">1</tspan></text></g><path stroke="#000000" stroke-linecap="round" stroke-width="1" transform="matrix(0.000000,1.000000,-1.000000,0.000000,94.488189,405.799213)" id="shape46" fill="none" d="M.0,.0L26.5,.0"/><g transform="translate(90.708661,417.137795)" id="shape47"><path stroke="#000000" stroke-linecap="round" stroke-width="0.31999999284744263" fill="none" d="M7.6,-1.9L.0,9.4"/><text xml:space="preserve" style="fill:#000000;font-family:Segoe UI,PingFang SC,Mircrosoft YaHei,Arial;font-size:8px"><tspan y="9.6" x="-13.6" textLength="12.0" style="font-family:Calibri,PingFang SC,Mircrosoft YaHei,Arial">16B</tspan></text></g><path stroke="#000000" stroke-linecap="round" stroke-width="1" transform="matrix(0.000000,1.000000,-1.000000,0.000000,25.971316,405.799213)" id="shape48" fill="none" d="M.0,.0L26.5,.0"/><g transform="translate(22.191789,417.137795)" id="shape49"><path stroke="#000000" stroke-linecap="round" stroke-width="0.31999999284744263" fill="none" d="M7.6,-1.9L.0,9.4"/><text xml:space="preserve" style="fill:#000000;font-family:Segoe UI,PingFang SC,Mircrosoft YaHei,Arial;font-size:8px"><tspan y="9.6" x="-13.6" textLength="12.0" style="font-family:Calibri,PingFang SC,Mircrosoft YaHei,Arial">16B</tspan></text></g><path stroke="#000000" stroke-linecap="round" stroke-width="1" transform="matrix(-0.358979,0.933346,-0.933346,-0.358979,22.677165,247.559055)" id="shape50" fill="none" d="M.0,.0L52.6,.0"/><path stroke="#000000" stroke-linecap="round" stroke-width="1" transform="matrix(0.322579,0.946542,-0.946542,0.322579,104.133296,247.362767)" id="shape51" fill="none" d="M.0,.0L52.1,.0"/><g transform="translate(547.924072,475.126399)" id="shape52"><text xml:space="preserve" style="fill:#000000;font-family:Segoe UI,PingFang SC,Mircrosoft YaHei,Arial;font-size:16px"><tspan y="12.1" x="22.0" textLength="41.0" style="font-family:Calibri,PingFang SC,Mircrosoft YaHei,Arial">to LSU</tspan></text></g><g transform="translate(290.275028,510.236220)" id="shape53"><path stroke="#ff0000" stroke-linecap="round" stroke-width="1" fill="#ffffff" fill-rule="evenodd" d="M.0,18.9L26.5,18.9L26.5,.0L.0,.0L.0,18.9z"/><text xml:space="preserve" style="fill:#000000;font-family:Arial,PingFang SC,Mircrosoft YaHei,Arial;font-size:8px"><tspan y="12.9" x="5.7" textLength="15.0" style="font-family:Segoe UI,PingFang SC,Mircrosoft YaHei,Arial">4m1</tspan></text></g><g transform="translate(335.629359,510.236220)" id="shape54"><path stroke="#ff0000" stroke-linecap="round" stroke-width="1" fill="#ffffff" fill-rule="evenodd" d="M.0,18.9L26.5,18.9L26.5,.0L.0,.0L.0,18.9z"/><text xml:space="preserve" style="fill:#000000;font-family:Arial,PingFang SC,Mircrosoft YaHei,Arial;font-size:8px"><tspan y="12.9" x="5.7" textLength="15.0" style="font-family:Segoe UI,PingFang SC,Mircrosoft YaHei,Arial">4m1</tspan></text></g><g transform="translate(505.708099,510.236220)" id="shape55"><path stroke="#ff0000" stroke-linecap="round" stroke-width="1" fill="#ffffff" fill-rule="evenodd" d="M.0,18.9L26.5,18.9L26.5,.0L.0,.0L.0,18.9z"/><text xml:space="preserve" style="fill:#000000;font-family:Arial,PingFang SC,Mircrosoft YaHei,Arial;font-size:8px"><tspan y="12.9" x="5.7" textLength="15.0" style="font-family:Segoe UI,PingFang SC,Mircrosoft YaHei,Arial">4m1</tspan></text></g><g transform="translate(246.506749,222.295897)" id="shape56"><path stroke="#000000" stroke-linecap="round" stroke-width="1" fill="#ffffff" fill-rule="evenodd" d="M.0,56.7L18.9,56.7L18.9,.0L.0,.0L.0,56.7z"/><text xml:space="preserve" style="fill:#000000;font-family:Segoe UI,PingFang SC,Mircrosoft YaHei,Arial;font-size:16px"><tspan y="14.8" x="4.9" textLength="9.0" style="font-family:Calibri,PingFang SC,Mircrosoft YaHei,Arial">B</tspan><tspan y="33.8" x="5.4" textLength="8.0" style="font-family:Calibri,PingFang SC,Mircrosoft YaHei,Arial">1</tspan><tspan y="52.8" x="5.4" textLength="8.0" style="font-family:Calibri,PingFang SC,Mircrosoft YaHei,Arial">6</tspan></text></g><g transform="translate(337.215411,222.295897)" id="shape57"><path stroke="#000000" stroke-linecap="round" stroke-width="1" fill="#ffffff" fill-rule="evenodd" d="M.0,56.7L18.9,56.7L18.9,.0L.0,.0L.0,56.7z"/><text xml:space="preserve" style="fill:#000000;font-family:Segoe UI,PingFang SC,Mircrosoft YaHei,Arial;font-size:16px"><tspan y="14.8" x="4.9" textLength="9.0" style="font-family:Calibri,PingFang SC,Mircrosoft YaHei,Arial">B</tspan><tspan y="33.8" x="5.4" textLength="8.0" style="font-family:Calibri,PingFang SC,Mircrosoft YaHei,Arial">1</tspan><tspan y="52.8" x="5.4" textLength="8.0" style="font-family:Calibri,PingFang SC,Mircrosoft YaHei,Arial">7</tspan></text></g><g transform="translate(507.294151,222.295897)" id="shape58"><path stroke="#000000" stroke-linecap="round" stroke-width="1" fill="#ffffff" fill-rule="evenodd" d="M.0,56.7L18.9,56.7L18.9,.0L.0,.0L.0,56.7z"/><text xml:space="preserve" style="fill:#000000;font-family:Segoe UI,PingFang SC,Mircrosoft YaHei,Arial;font-size:16px"><tspan y="14.8" x="4.9" textLength="9.0" style="font-family:Calibri,PingFang SC,Mircrosoft YaHei,Arial">B</tspan><tspan y="33.8" x="5.4" textLength="8.0" style="font-family:Calibri,PingFang SC,Mircrosoft YaHei,Arial">2</tspan><tspan y="52.8" x="5.4" textLength="8.0" style="font-family:Calibri,PingFang SC,Mircrosoft YaHei,Arial">3</tspan></text></g><path stroke="#000000" stroke-linecap="round" stroke-width="1" transform="translate(363.672104,248.752590)" id="shape59" fill="none" stroke-dasharray="11,5" d="M.0,.0L132.3,.0"/><g transform="translate(291.861080,222.295897)" id="shape60"><path stroke="#000000" stroke-linecap="round" stroke-width="1" fill="#ffffff" fill-rule="evenodd" d="M.0,56.7L18.9,56.7L18.9,.0L.0,.0L.0,56.7z"/><text xml:space="preserve" style="fill:#000000;font-family:Segoe UI,PingFang SC,Mircrosoft YaHei,Arial;font-size:16px"><tspan y="14.8" x="4.9" textLength="9.0" style="font-family:Calibri,PingFang SC,Mircrosoft YaHei,Arial">B</tspan><tspan y="33.8" x="5.4" textLength="8.0" style="font-family:Calibri,PingFang SC,Mircrosoft YaHei,Arial">2</tspan><tspan y="52.8" x="5.4" textLength="8.0" style="font-family:Calibri,PingFang SC,Mircrosoft YaHei,Arial">0</tspan></text></g><g transform="translate(246.506749,297.886448)" id="shape61"><path stroke="#000000" stroke-linecap="round" stroke-width="1" fill="#ffffff" fill-rule="evenodd" d="M.0,56.7L18.9,56.7L18.9,.0L.0,.0L.0,56.7z"/><text xml:space="preserve" style="fill:#000000;font-family:Segoe UI,PingFang SC,Mircrosoft YaHei,Arial;font-size:16px"><tspan y="14.8" x="4.9" textLength="9.0" style="font-family:Calibri,PingFang SC,Mircrosoft YaHei,Arial">B</tspan><tspan y="33.8" x="5.4" textLength="8.0" style="font-family:Calibri,PingFang SC,Mircrosoft YaHei,Arial">2</tspan><tspan y="52.8" x="5.4" textLength="8.0" style="font-family:Calibri,PingFang SC,Mircrosoft YaHei,Arial">4</tspan></text></g><g transform="translate(337.215411,297.886448)" id="shape62"><path stroke="#000000" stroke-linecap="round" stroke-width="1" fill="#ffffff" fill-rule="evenodd" d="M.0,56.7L18.9,56.7L18.9,.0L.0,.0L.0,56.7z"/><text xml:space="preserve" style="fill:#000000;font-family:Segoe UI,PingFang SC,Mircrosoft YaHei,Arial;font-size:16px"><tspan y="14.8" x="4.9" textLength="9.0" style="font-family:Calibri,PingFang SC,Mircrosoft YaHei,Arial">B</tspan><tspan y="33.8" x="5.4" textLength="8.0" style="font-family:Calibri,PingFang SC,Mircrosoft YaHei,Arial">2</tspan><tspan y="52.8" x="5.4" textLength="8.0" style="font-family:Calibri,PingFang SC,Mircrosoft YaHei,Arial">5</tspan></text></g><g transform="translate(507.294151,297.886448)" id="shape63"><path stroke="#000000" stroke-linecap="round" stroke-width="1" fill="#ffffff" fill-rule="evenodd" d="M.0,56.7L18.9,56.7L18.9,.0L.0,.0L.0,56.7z"/><text xml:space="preserve" style="fill:#000000;font-family:Segoe UI,PingFang SC,Mircrosoft YaHei,Arial;font-size:16px"><tspan y="14.8" x="4.9" textLength="9.0" style="font-family:Calibri,PingFang SC,Mircrosoft YaHei,Arial">B</tspan><tspan y="33.8" x="5.4" textLength="8.0" style="font-family:Calibri,PingFang SC,Mircrosoft YaHei,Arial">3</tspan><tspan y="52.8" x="5.4" textLength="8.0" style="font-family:Calibri,PingFang SC,Mircrosoft YaHei,Arial">1</tspan></text></g><path stroke="#000000" stroke-linecap="round" stroke-width="1" transform="translate(363.672104,324.343141)" id="shape64" fill="none" stroke-dasharray="11,5" d="M.0,.0L132.3,.0"/><g transform="translate(291.861080,297.886448)" id="shape65"><path stroke="#000000" stroke-linecap="round" stroke-width="1" fill="#ffffff" fill-rule="evenodd" d="M.0,56.7L18.9,56.7L18.9,.0L.0,.0L.0,56.7z"/><text xml:space="preserve" style="fill:#000000;font-family:Segoe UI,PingFang SC,Mircrosoft YaHei,Arial;font-size:16px"><tspan y="14.8" x="4.9" textLength="9.0" style="font-family:Calibri,PingFang SC,Mircrosoft YaHei,Arial">B</tspan><tspan y="33.8" x="5.4" textLength="8.0" style="font-family:Calibri,PingFang SC,Mircrosoft YaHei,Arial">2</tspan><tspan y="52.8" x="5.4" textLength="8.0" style="font-family:Calibri,PingFang SC,Mircrosoft YaHei,Arial">8</tspan></text></g><g transform="translate(457.856580,510.236220)" id="shape66"><path stroke="#ff0000" stroke-linecap="round" stroke-width="1" fill="#ffffff" fill-rule="evenodd" d="M.0,18.9L26.5,18.9L26.5,.0L.0,.0L.0,18.9z"/><text xml:space="preserve" style="fill:#000000;font-family:Arial,PingFang SC,Mircrosoft YaHei,Arial;font-size:8px"><tspan y="12.9" x="5.7" textLength="15.0" style="font-family:Segoe UI,PingFang SC,Mircrosoft YaHei,Arial">4m1</tspan></text></g><g transform="translate(242.727222,784.251969)" id="shape67"><path stroke="#ff0000" stroke-linecap="round" stroke-width="1" fill="#ffffff" fill-rule="evenodd" d="M.0,26.5L289.1,26.5L289.1,.0L.0,.0L.0,26.5z"/><text xml:space="preserve" style="fill:#000000;font-family:Arial,PingFang SC,Mircrosoft YaHei,Arial;font-size:8px"><tspan y="16.7" x="131.6" textLength="26.0" style="font-family:Segoe UI,PingFang SC,Mircrosoft YaHei,Arial">wdata1</tspan></text></g><g transform="translate(242.727222,805.795276)" id="shape68"><path stroke="#ff0000" stroke-linecap="round" stroke-width="1" fill="#ffffff" fill-rule="evenodd" d="M.0,54.0L289.1,54.0L289.1,.0L.0,.0L.0,54.0z"/><text xml:space="preserve" style="fill:#000000;font-family:Segoe UI,PingFang SC,Mircrosoft YaHei,Arial;font-size:16px"><tspan y="32.5" x="69.1" textLength="151.0" style="font-family:Calibri,PingFang SC,Mircrosoft YaHei,Arial">8x8 32B per ele rotator</tspan></text></g><g transform="translate(199.262655,835.763272)" id="shape69"><path stroke="#ff0000" stroke-linecap="round" stroke-width="1" fill="none" d="M.0,.0L35.7,.0"/><path stroke-linecap="round" stroke="#ff0000" stroke-width="1" fill="#ff0000" d="M43.5,.0L35.7,-2.0L35.7,2.0L43.5,.0"/></g><g transform="translate(160.629921,846.614173)" id="shape70"><text xml:space="preserve" style="fill:#000000;font-family:Segoe UI,PingFang SC,Mircrosoft YaHei,Arial;font-size:16px"><tspan y="12.1" x="10.0" textLength="65.0" style="font-family:Calibri,PingFang SC,Mircrosoft YaHei,Arial">from MTE</tspan></text></g><g transform="translate(240.944882,699.106206)" id="shape71"><path stroke="#ffc000" stroke-linecap="round" stroke-width="1" fill="#ffffff" fill-rule="evenodd" d="M.0,26.5L289.1,26.5L289.1,.0L.0,.0L.0,26.5z"/><text xml:space="preserve" style="fill:#000000;font-family:Arial,PingFang SC,Mircrosoft YaHei,Arial;font-size:8px"><tspan y="16.7" x="131.6" textLength="26.0" style="font-family:Segoe UI,PingFang SC,Mircrosoft YaHei,Arial">wdata0</tspan></text></g><g transform="translate(240.944882,725.023114)" id="shape72"><path stroke="#ffc000" stroke-linecap="round" stroke-width="1" fill="#ffffff" fill-rule="evenodd" d="M.0,54.0L289.1,54.0L289.1,.0L.0,.0L.0,54.0z"/><text xml:space="preserve" style="fill:#ff0000;font-family:Segoe UI,PingFang SC,Mircrosoft YaHei,Arial;font-size:16px;font-weight:bold"><tspan y="32.5" x="63.1" textLength="163.0" style="font-family:Calibri,PingFang SC,Mircrosoft YaHei,Arial">8x8 32B per ele full xbar</tspan></text></g><g transform="matrix(-1.000000,0.000000,0.000000,-1.000000,585.826772,753.409356)" id="shape73"><path stroke="#ffc000" stroke-linecap="round" stroke-width="1" fill="none" d="M.0,.0L48.9,.0"/><path stroke-linecap="round" stroke="#ffc000" stroke-width="1" fill="#ffc000" d="M56.7,.0L48.9,-2.0L48.9,2.0L56.7,.0"/></g><g transform="translate(548.031496,753.409355)" id="shape74"><text xml:space="preserve" style="fill:#000000;font-family:Segoe UI,PingFang SC,Mircrosoft YaHei,Arial;font-size:16px"><tspan y="12.1" x="13.0" textLength="59.0" style="font-family:Calibri,PingFang SC,Mircrosoft YaHei,Arial">from LSU</tspan></text></g><g transform="translate(240.944882,658.796038)" id="group75"><g transform="translate(11.612903,0.000001)" id="shape76"><path stroke="#ffc000" stroke-linecap="round" stroke-width="1" fill="#ffffff" fill-rule="evenodd" d="M.0,18.9L26.5,18.9L26.5,.0L.0,.0L.0,18.9z"/><text xml:space="preserve" style="fill:#000000;font-family:Segoe UI,PingFang SC,Mircrosoft YaHei,Arial;font-size:8px"><tspan y="12.4" x="6.2" textLength="14.0" style="font-family:Calibri,PingFang SC,Mircrosoft YaHei,Arial">2m1</tspan></text></g><g transform="translate(8.382017,3.048019)" id="shape77"><path stroke="#ffc000" stroke-linecap="round" stroke-width="1" fill="#ffffff" fill-rule="evenodd" d="M.0,18.9L26.5,18.9L26.5,.0L.0,.0L.0,18.9z"/><text xml:space="preserve" style="fill:#000000;font-family:Segoe UI,PingFang SC,Mircrosoft YaHei,Arial;font-size:8px"><tspan y="12.4" x="6.2" textLength="14.0" style="font-family:Calibri,PingFang SC,Mircrosoft YaHei,Arial">2m1</tspan></text></g><g transform="translate(4.114808,7.193301)" id="shape78"><path stroke="#ffc000" stroke-linecap="round" stroke-width="1" fill="#ffffff" fill-rule="evenodd" d="M.0,18.9L26.5,18.9L26.5,.0L.0,.0L.0,18.9z"/><text xml:space="preserve" style="fill:#000000;font-family:Segoe UI,PingFang SC,Mircrosoft YaHei,Arial;font-size:8px"><tspan y="12.4" x="6.2" textLength="14.0" style="font-family:Calibri,PingFang SC,Mircrosoft YaHei,Arial">2m1</tspan></text></g><g transform="translate(0.000000,11.460502)" id="shape79"><path stroke="#ffc000" stroke-linecap="round" stroke-width="1" fill="#ffffff" fill-rule="evenodd" d="M.0,18.9L26.5,18.9L26.5,.0L.0,.0L.0,18.9z"/><text xml:space="preserve" style="fill:#000000;font-family:Segoe UI,PingFang SC,Mircrosoft YaHei,Arial;font-size:8px"><tspan y="12.4" x="6.2" textLength="14.0" style="font-family:Calibri,PingFang SC,Mircrosoft YaHei,Arial">2m1</tspan></text></g></g><g transform="translate(292.913386,658.796038)" id="group80"><g transform="translate(11.612903,0.000001)" id="shape81"><path stroke="#ffc000" stroke-linecap="round" stroke-width="1" fill="#ffffff" fill-rule="evenodd" d="M.0,18.9L26.5,18.9L26.5,.0L.0,.0L.0,18.9z"/><text xml:space="preserve" style="fill:#000000;font-family:Segoe UI,PingFang SC,Mircrosoft YaHei,Arial;font-size:8px"><tspan y="12.4" x="6.2" textLength="14.0" style="font-family:Calibri,PingFang SC,Mircrosoft YaHei,Arial">2m1</tspan></text></g><g transform="translate(8.382017,3.048019)" id="shape82"><path stroke="#ffc000" stroke-linecap="round" stroke-width="1" fill="#ffffff" fill-rule="evenodd" d="M.0,18.9L26.5,18.9L26.5,.0L.0,.0L.0,18.9z"/><text xml:space="preserve" style="fill:#000000;font-family:Segoe UI,PingFang SC,Mircrosoft YaHei,Arial;font-size:8px"><tspan y="12.4" x="6.2" textLength="14.0" style="font-family:Calibri,PingFang SC,Mircrosoft YaHei,Arial">2m1</tspan></text></g><g transform="translate(4.114808,7.193301)" id="shape83"><path stroke="#ffc000" stroke-linecap="round" stroke-width="1" fill="#ffffff" fill-rule="evenodd" d="M.0,18.9L26.5,18.9L26.5,.0L.0,.0L.0,18.9z"/><text xml:space="preserve" style="fill:#000000;font-family:Segoe UI,PingFang SC,Mircrosoft YaHei,Arial;font-size:8px"><tspan y="12.4" x="6.2" textLength="14.0" style="font-family:Calibri,PingFang SC,Mircrosoft YaHei,Arial">2m1</tspan></text></g><g transform="translate(0.000000,11.460502)" id="shape84"><path stroke="#ffc000" stroke-linecap="round" stroke-width="1" fill="#ffffff" fill-rule="evenodd" d="M.0,18.9L26.5,18.9L26.5,.0L.0,.0L.0,18.9z"/><text xml:space="preserve" style="fill:#000000;font-family:Segoe UI,PingFang SC,Mircrosoft YaHei,Arial;font-size:8px"><tspan y="12.4" x="6.2" textLength="14.0" style="font-family:Calibri,PingFang SC,Mircrosoft YaHei,Arial">2m1</tspan></text></g></g><g transform="translate(340.157480,658.796038)" id="group85"><g transform="translate(11.612903,0.000001)" id="shape86"><path stroke="#ffc000" stroke-linecap="round" stroke-width="1" fill="#ffffff" fill-rule="evenodd" d="M.0,18.9L26.5,18.9L26.5,.0L.0,.0L.0,18.9z"/><text xml:space="preserve" style="fill:#000000;font-family:Segoe UI,PingFang SC,Mircrosoft YaHei,Arial;font-size:8px"><tspan y="12.4" x="6.2" textLength="14.0" style="font-family:Calibri,PingFang SC,Mircrosoft YaHei,Arial">2m1</tspan></text></g><g transform="translate(8.382017,3.048019)" id="shape87"><path stroke="#ffc000" stroke-linecap="round" stroke-width="1" fill="#ffffff" fill-rule="evenodd" d="M.0,18.9L26.5,18.9L26.5,.0L.0,.0L.0,18.9z"/><text xml:space="preserve" style="fill:#000000;font-family:Segoe UI,PingFang SC,Mircrosoft YaHei,Arial;font-size:8px"><tspan y="12.4" x="6.2" textLength="14.0" style="font-family:Calibri,PingFang SC,Mircrosoft YaHei,Arial">2m1</tspan></text></g><g transform="translate(4.114808,7.193301)" id="shape88"><path stroke="#ffc000" stroke-linecap="round" stroke-width="1" fill="#ffffff" fill-rule="evenodd" d="M.0,18.9L26.5,18.9L26.5,.0L.0,.0L.0,18.9z"/><text xml:space="preserve" style="fill:#000000;font-family:Segoe UI,PingFang SC,Mircrosoft YaHei,Arial;font-size:8px"><tspan y="12.4" x="6.2" textLength="14.0" style="font-family:Calibri,PingFang SC,Mircrosoft YaHei,Arial">2m1</tspan></text></g><g transform="translate(0.000000,11.460502)" id="shape89"><path stroke="#ffc000" stroke-linecap="round" stroke-width="1" fill="#ffffff" fill-rule="evenodd" d="M.0,18.9L26.5,18.9L26.5,.0L.0,.0L.0,18.9z"/><text xml:space="preserve" style="fill:#000000;font-family:Segoe UI,PingFang SC,Mircrosoft YaHei,Arial;font-size:8px"><tspan y="12.4" x="6.2" textLength="14.0" style="font-family:Calibri,PingFang SC,Mircrosoft YaHei,Arial">2m1</tspan></text></g></g><g transform="translate(500.513081,658.796038)" id="group90"><g transform="translate(11.612903,0.000001)" id="shape91"><path stroke="#ffc000" stroke-linecap="round" stroke-width="1" fill="#ffffff" fill-rule="evenodd" d="M.0,18.9L26.5,18.9L26.5,.0L.0,.0L.0,18.9z"/><text xml:space="preserve" style="fill:#000000;font-family:Segoe UI,PingFang SC,Mircrosoft YaHei,Arial;font-size:8px"><tspan y="12.4" x="6.2" textLength="14.0" style="font-family:Calibri,PingFang SC,Mircrosoft YaHei,Arial">2m1</tspan></text></g><g transform="translate(8.382017,3.048019)" id="shape92"><path stroke="#ffc000" stroke-linecap="round" stroke-width="1" fill="#ffffff" fill-rule="evenodd" d="M.0,18.9L26.5,18.9L26.5,.0L.0,.0L.0,18.9z"/><text xml:space="preserve" style="fill:#000000;font-family:Segoe UI,PingFang SC,Mircrosoft YaHei,Arial;font-size:8px"><tspan y="12.4" x="6.2" textLength="14.0" style="font-family:Calibri,PingFang SC,Mircrosoft YaHei,Arial">2m1</tspan></text></g><g transform="translate(4.114808,7.193301)" id="shape93"><path stroke="#ffc000" stroke-linecap="round" stroke-width="1" fill="#ffffff" fill-rule="evenodd" d="M.0,18.9L26.5,18.9L26.5,.0L.0,.0L.0,18.9z"/><text xml:space="preserve" style="fill:#000000;font-family:Segoe UI,PingFang SC,Mircrosoft YaHei,Arial;font-size:8px"><tspan y="12.4" x="6.2" textLength="14.0" style="font-family:Calibri,PingFang SC,Mircrosoft YaHei,Arial">2m1</tspan></text></g><g transform="translate(0.000000,11.460502)" id="shape94"><path stroke="#ffc000" stroke-linecap="round" stroke-width="1" fill="#ffffff" fill-rule="evenodd" d="M.0,18.9L26.5,18.9L26.5,.0L.0,.0L.0,18.9z"/><text xml:space="preserve" style="fill:#000000;font-family:Segoe UI,PingFang SC,Mircrosoft YaHei,Arial;font-size:8px"><tspan y="12.4" x="6.2" textLength="14.0" style="font-family:Calibri,PingFang SC,Mircrosoft YaHei,Arial">2m1</tspan></text></g></g><path stroke="#000000" stroke-linecap="round" stroke-width="1" transform="matrix(0.000000,1.000000,-1.000000,0.000000,255.118110,394.460630)" id="shape95" fill="none" d="M.0,.0L26.4,.0"/><path stroke="#000000" stroke-linecap="round" stroke-width="1" transform="matrix(0.000000,1.000000,-1.000000,0.000000,302.362205,394.460630)" id="shape96" fill="none" d="M.0,.0L26.4,.0"/><path stroke="#000000" stroke-linecap="round" stroke-width="1" transform="matrix(0.000000,1.000000,-1.000000,0.000000,349.606299,394.460630)" id="shape97" fill="none" d="M.0,.0L26.4,.0"/><path stroke="#000000" stroke-linecap="round" stroke-width="1" transform="matrix(0.000000,1.000000,-1.000000,0.000000,519.685039,394.460630)" id="shape98" fill="none" d="M.0,.0L26.4,.0"/><path stroke="#000000" stroke-linecap="round" stroke-width="1" transform="matrix(0.000000,-1.000000,1.000000,0.000000,245.669291,699.106207)" id="shape99" fill="none" d="M.0,.0L10.0,.0"/><path stroke="#000000" stroke-linecap="round" stroke-width="1" transform="matrix(0.000000,-1.000000,1.000000,0.000000,260.787402,786.629413)" id="shape100" fill="none" d="M.0,.0L98.3,.0"/><path stroke="#000000" stroke-linecap="round" stroke-width="1" transform="matrix(0.000000,-1.000000,1.000000,0.000000,295.559055,697.810516)" id="shape101" fill="none" d="M.0,.0L9.4,.0"/><path stroke="#000000" stroke-linecap="round" stroke-width="1" transform="matrix(0.000000,-1.000000,1.000000,0.000000,311.811024,784.251970)" id="shape102" fill="none" d="M.0,.0L95.1,.0"/><path stroke="#000000" stroke-linecap="round" stroke-width="1" transform="matrix(0.000000,-1.000000,1.000000,0.000000,343.937008,699.700279)" id="shape103" fill="none" d="M.0,.0L9.4,.0"/><path stroke="#000000" stroke-linecap="round" stroke-width="1" transform="matrix(0.000000,-1.000000,1.000000,0.000000,362.078740,787.385319)" id="shape104" fill="none" d="M.0,.0L97.1,.0"/><path stroke="#000000" stroke-linecap="round" stroke-width="1" transform="matrix(0.000000,-1.000000,1.000000,0.000000,504.566929,697.810516)" id="shape105" fill="none" d="M.0,.0L10.2,.0"/><path stroke="#000000" stroke-linecap="round" stroke-width="1" transform="matrix(0.000000,-1.000000,1.000000,0.000000,523.464567,785.117602)" id="shape106" fill="none" d="M.0,.0L96.8,.0"/><path stroke="#000000" stroke-linecap="round" stroke-width="1" transform="matrix(0.000000,1.000000,-1.000000,0.000000,255.118110,529.133858)" id="shape107" fill="none" d="M.0,.0L28.3,.0"/><g transform="translate(160.629921,637.606299)" id="shape108"><path stroke="#000000" stroke-linecap="round" stroke-width="1" fill="none" stroke-dasharray="11,5" d="M.0,241.1L472.4,241.1L472.4,.0L.0,.0L.0,241.1z"/><text xml:space="preserve" style="fill:#000000;font-family:Segoe UI,PingFang SC,Mircrosoft YaHei,Arial;font-size:16px"><tspan y="19.0" x="4.2" textLength="67.0" style="font-family:Calibri,PingFang SC,Mircrosoft YaHei,Arial">write path</tspan></text></g><g transform="translate(160.629921,362.834646)" id="shape109"><path stroke="#000000" stroke-linecap="round" stroke-width="1" fill="none" stroke-dasharray="11,5" d="M.0,275.1L472.4,275.1L472.4,.0L.0,.0L.0,275.1z"/><text xml:space="preserve" style="fill:#000000;font-family:Segoe UI,PingFang SC,Mircrosoft YaHei,Arial;font-size:16px"><tspan y="19.0" x="4.2" textLength="62.0" style="font-family:Calibri,PingFang SC,Mircrosoft YaHei,Arial">read path</tspan></text></g><path stroke="#000000" stroke-linecap="round" stroke-width="1" transform="matrix(0.000000,1.000000,-1.000000,0.000000,302.362205,529.133858)" id="shape110" fill="none" d="M.0,.0L28.3,.0"/><path stroke="#000000" stroke-linecap="round" stroke-width="1" transform="matrix(0.000000,1.000000,-1.000000,0.000000,349.606299,529.133858)" id="shape111" fill="none" d="M.0,.0L28.3,.0"/><path stroke="#000000" stroke-linecap="round" stroke-width="1" transform="matrix(0.000000,1.000000,-1.000000,0.000000,472.440945,529.133858)" id="shape112" fill="none" d="M.0,.0L28.3,.0"/><path stroke="#000000" stroke-linecap="round" stroke-width="1" transform="matrix(0.000000,1.000000,-1.000000,0.000000,519.685039,529.133858)" id="shape113" fill="none" d="M.0,.0L28.3,.0"/></g></svg>